<svg xmlns="http://www.w3.org/2000/svg" viewBox="0 0 1200 320" width="1200" height="320">
  <defs>
    <linearGradient id="bg" x1="0" y1="0" x2="1" y2="1">
      <stop offset="0%" stop-color="#0d1117"/>
      <stop offset="100%" stop-color="#161b22"/>
    </linearGradient>
    <linearGradient id="nameGrad" x1="0" y1="0" x2="1" y2="0">
      <stop offset="0%" stop-color="#6366F1"/>
      <stop offset="100%" stop-color="#EC4899"/>
    </linearGradient>
    <linearGradient id="subtitleGrad" x1="0" y1="0" x2="1" y2="0">
      <stop offset="0%" stop-color="#A5B4FC"/>
      <stop offset="100%" stop-color="#F9A8D4"/>
    </linearGradient>
    <linearGradient id="edgeGradL" x1="0" y1="0" x2="1" y2="0">
      <stop offset="0%" stop-color="#818CF8"/>
      <stop offset="100%" stop-color="#C4B5FD"/>
    </linearGradient>
    <linearGradient id="edgeGradR" x1="1" y1="0" x2="0" y2="0">
      <stop offset="0%" stop-color="#F9A8D4"/>
      <stop offset="100%" stop-color="#FBCFE8"/>
    </linearGradient>
    <filter id="glow">
      <feGaussianBlur in="SourceGraphic" stdDeviation="2" result="blur"/>
      <feMerge><feMergeNode in="blur"/><feMergeNode in="SourceGraphic"/></feMerge>
    </filter>
    <filter id="textGlow">
      <feGaussianBlur in="SourceGraphic" stdDeviation="6"/>
    </filter>
    <filter id="layerGlow">
      <feGaussianBlur in="SourceGraphic" stdDeviation="18"/>
    </filter>
  </defs>

  <rect width="1200" height="320" fill="url(#bg)"/>

  <!-- LEFT NETWORK -->
  <!-- Subtle layer glow bands -->
  <ellipse cx="80" cy="160" rx="18" ry="100" fill="#818CF8" opacity="0.04" filter="url(#layerGlow)"/>
  <ellipse cx="160" cy="160" rx="18" ry="110" fill="#6366F1" opacity="0.05" filter="url(#layerGlow)"/>
  <ellipse cx="260" cy="160" rx="18" ry="120" fill="#8B5CF6" opacity="0.05" filter="url(#layerGlow)"/>
  <ellipse cx="370" cy="160" rx="18" ry="110" fill="#A78BFA" opacity="0.04" filter="url(#layerGlow)"/>
  <ellipse cx="470" cy="160" rx="18" ry="90" fill="#C4B5FD" opacity="0.04" filter="url(#layerGlow)"/>

  <!-- Left edges (selective, curved) -->
  <g stroke="url(#edgeGradL)" fill="none" stroke-width="0.8">
    <!-- Input(80) → Hidden1(160) -->
    <path d="M80,80 C120,80 120,65 160,65" stroke-opacity="0.22"/>
    <path d="M80,80 C120,85 120,110 160,110" stroke-opacity="0.18"/>
    <path d="M80,130 C120,130 120,65 160,65" stroke-opacity="0.15"/>
    <path d="M80,130 C120,130 120,110 160,110" stroke-opacity="0.22"/>
    <path d="M80,130 C120,135 120,155 160,155" stroke-opacity="0.20"/>
    <path d="M80,180 C120,180 120,155 160,155" stroke-opacity="0.22"/>
    <path d="M80,180 C120,180 120,200 160,200" stroke-opacity="0.18"/>
    <path d="M80,230 C120,230 120,200 160,200" stroke-opacity="0.22"/>
    <path d="M80,230 C120,230 120,245 160,245" stroke-opacity="0.20"/>
    <path d="M80,80 C120,90 120,155 160,155" stroke-opacity="0.10"/>
    <path d="M80,230 C120,220 120,110 160,110" stroke-opacity="0.10"/>

    <!-- Hidden1(160) → Hidden2(260) -->
    <path d="M160,65 C210,65 210,55 260,55" stroke-opacity="0.22"/>
    <path d="M160,65 C210,70 210,100 260,100" stroke-opacity="0.18"/>
    <path d="M160,110 C210,110 210,100 260,100" stroke-opacity="0.22"/>
    <path d="M160,110 C210,115 210,145 260,145" stroke-opacity="0.15"/>
    <path d="M160,155 C210,155 210,145 260,145" stroke-opacity="0.22"/>
    <path d="M160,155 C210,160 210,190 260,190" stroke-opacity="0.18"/>
    <path d="M160,200 C210,200 210,190 260,190" stroke-opacity="0.22"/>
    <path d="M160,200 C210,205 210,235 260,235" stroke-opacity="0.15"/>
    <path d="M160,245 C210,245 210,235 260,235" stroke-opacity="0.22"/>
    <path d="M160,245 C210,240 210,265 260,265" stroke-opacity="0.18"/>
    <path d="M160,65 C210,80 210,190 260,190" stroke-opacity="0.08"/>
    <path d="M160,245 C210,230 210,100 260,100" stroke-opacity="0.08"/>

    <!-- Hidden2(260) → Hidden3(370) -->
    <path d="M260,55 C315,55 315,75 370,75" stroke-opacity="0.22"/>
    <path d="M260,100 C315,100 315,75 370,75" stroke-opacity="0.18"/>
    <path d="M260,100 C315,105 315,125 370,125" stroke-opacity="0.22"/>
    <path d="M260,145 C315,145 315,125 370,125" stroke-opacity="0.15"/>
    <path d="M260,145 C315,150 315,170 370,170" stroke-opacity="0.22"/>
    <path d="M260,190 C315,190 315,170 370,170" stroke-opacity="0.18"/>
    <path d="M260,190 C315,195 315,215 370,215" stroke-opacity="0.22"/>
    <path d="M260,235 C315,235 315,215 370,215" stroke-opacity="0.15"/>
    <path d="M260,265 C315,265 315,255 370,255" stroke-opacity="0.22"/>
    <path d="M260,235 C315,240 315,255 370,255" stroke-opacity="0.18"/>

    <!-- Hidden3(370) → Output(470) -->
    <path d="M370,75 C420,80 420,100 470,100" stroke-opacity="0.22"/>
    <path d="M370,125 C420,125 420,100 470,100" stroke-opacity="0.18"/>
    <path d="M370,125 C420,130 420,155 470,155" stroke-opacity="0.22"/>
    <path d="M370,170 C420,170 420,155 470,155" stroke-opacity="0.15"/>
    <path d="M370,215 C420,210 420,210 470,210" stroke-opacity="0.22"/>
    <path d="M370,255 C420,250 420,210 470,210" stroke-opacity="0.18"/>
    <path d="M370,170 C420,175 420,210 470,210" stroke-opacity="0.12"/>
  </g>

  <!-- RIGHT NETWORK -->
  <!-- Subtle layer glow bands -->
  <ellipse cx="1120" cy="160" rx="18" ry="100" fill="#F9A8D4" opacity="0.04" filter="url(#layerGlow)"/>
  <ellipse cx="1040" cy="160" rx="18" ry="110" fill="#EC4899" opacity="0.05" filter="url(#layerGlow)"/>
  <ellipse cx="940" cy="160" rx="18" ry="120" fill="#DB2777" opacity="0.05" filter="url(#layerGlow)"/>
  <ellipse cx="830" cy="160" rx="18" ry="110" fill="#F472B6" opacity="0.04" filter="url(#layerGlow)"/>
  <ellipse cx="730" cy="160" rx="18" ry="90" fill="#FBCFE8" opacity="0.04" filter="url(#layerGlow)"/>

  <!-- Right edges (selective, curved) -->
  <g stroke="url(#edgeGradR)" fill="none" stroke-width="0.8">
    <!-- Input(1120) → Hidden1(1040) -->
    <path d="M1120,80 C1080,80 1080,65 1040,65" stroke-opacity="0.22"/>
    <path d="M1120,80 C1080,85 1080,110 1040,110" stroke-opacity="0.18"/>
    <path d="M1120,130 C1080,130 1080,65 1040,65" stroke-opacity="0.15"/>
    <path d="M1120,130 C1080,130 1080,110 1040,110" stroke-opacity="0.22"/>
    <path d="M1120,130 C1080,135 1080,155 1040,155" stroke-opacity="0.20"/>
    <path d="M1120,180 C1080,180 1080,155 1040,155" stroke-opacity="0.22"/>
    <path d="M1120,180 C1080,180 1080,200 1040,200" stroke-opacity="0.18"/>
    <path d="M1120,230 C1080,230 1080,200 1040,200" stroke-opacity="0.22"/>
    <path d="M1120,230 C1080,230 1080,245 1040,245" stroke-opacity="0.20"/>
    <path d="M1120,80 C1080,90 1080,155 1040,155" stroke-opacity="0.10"/>
    <path d="M1120,230 C1080,220 1080,110 1040,110" stroke-opacity="0.10"/>

    <!-- Hidden1(1040) → Hidden2(940) -->
    <path d="M1040,65 C990,65 990,55 940,55" stroke-opacity="0.22"/>
    <path d="M1040,65 C990,70 990,100 940,100" stroke-opacity="0.18"/>
    <path d="M1040,110 C990,110 990,100 940,100" stroke-opacity="0.22"/>
    <path d="M1040,110 C990,115 990,145 940,145" stroke-opacity="0.15"/>
    <path d="M1040,155 C990,155 990,145 940,145" stroke-opacity="0.22"/>
    <path d="M1040,155 C990,160 990,190 940,190" stroke-opacity="0.18"/>
    <path d="M1040,200 C990,200 990,190 940,190" stroke-opacity="0.22"/>
    <path d="M1040,200 C990,205 990,235 940,235" stroke-opacity="0.15"/>
    <path d="M1040,245 C990,245 990,235 940,235" stroke-opacity="0.22"/>
    <path d="M1040,245 C990,240 990,265 940,265" stroke-opacity="0.18"/>
    <path d="M1040,65 C990,80 990,190 940,190" stroke-opacity="0.08"/>
    <path d="M1040,245 C990,230 990,100 940,100" stroke-opacity="0.08"/>

    <!-- Hidden2(940) → Hidden3(830) -->
    <path d="M940,55 C885,55 885,75 830,75" stroke-opacity="0.22"/>
    <path d="M940,100 C885,100 885,75 830,75" stroke-opacity="0.18"/>
    <path d="M940,100 C885,105 885,125 830,125" stroke-opacity="0.22"/>
    <path d="M940,145 C885,145 885,125 830,125" stroke-opacity="0.15"/>
    <path d="M940,145 C885,150 885,170 830,170" stroke-opacity="0.22"/>
    <path d="M940,190 C885,190 885,170 830,170" stroke-opacity="0.18"/>
    <path d="M940,190 C885,195 885,215 830,215" stroke-opacity="0.22"/>
    <path d="M940,235 C885,235 885,215 830,215" stroke-opacity="0.15"/>
    <path d="M940,265 C885,265 885,255 830,255" stroke-opacity="0.22"/>
    <path d="M940,235 C885,240 885,255 830,255" stroke-opacity="0.18"/>

    <!-- Hidden3(830) → Output(730) -->
    <path d="M830,75 C780,80 780,100 730,100" stroke-opacity="0.22"/>
    <path d="M830,125 C780,125 780,100 730,100" stroke-opacity="0.18"/>
    <path d="M830,125 C780,130 780,155 730,155" stroke-opacity="0.22"/>
    <path d="M830,170 C780,170 780,155 730,155" stroke-opacity="0.15"/>
    <path d="M830,215 C780,210 780,210 730,210" stroke-opacity="0.22"/>
    <path d="M830,255 C780,250 780,210 730,210" stroke-opacity="0.18"/>
    <path d="M830,170 C780,175 780,210 730,210" stroke-opacity="0.12"/>
  </g>

  <!-- ANIMATED PULSES (left → center) -->
  <circle r="3" fill="#818CF8" filter="url(#glow)" opacity="0">
    <animateMotion dur="3.5s" repeatCount="indefinite" path="M80,130 C120,130 120,110 160,110 C210,110 210,100 260,100 C315,100 315,75 370,75 C420,80 420,100 470,100"/>
    <animate attributeName="opacity" values="0;0.9;0.9;0.9;0" dur="3.5s" repeatCount="indefinite"/>
    <animate attributeName="r" values="2;3.5;3;3.5;2" dur="3.5s" repeatCount="indefinite"/>
  </circle>
  <circle r="2.5" fill="#6366F1" filter="url(#glow)" opacity="0">
    <animateMotion dur="4s" begin="1.5s" repeatCount="indefinite" path="M80,230 C120,230 120,200 160,200 C210,200 210,190 260,190 C315,190 315,170 370,170 C420,175 420,210 470,210"/>
    <animate attributeName="opacity" values="0;0.85;0.85;0.85;0" dur="4s" begin="1.5s" repeatCount="indefinite"/>
  </circle>
  <circle r="2.5" fill="#A78BFA" filter="url(#glow)" opacity="0">
    <animateMotion dur="4.2s" begin="0.8s" repeatCount="indefinite" path="M80,80 C120,80 120,65 160,65 C210,65 210,55 260,55 C315,55 315,75 370,75 C420,80 420,100 470,100"/>
    <animate attributeName="opacity" values="0;0.8;0.8;0.8;0" dur="4.2s" begin="0.8s" repeatCount="indefinite"/>
  </circle>

  <!-- ANIMATED PULSES (right → center) -->
  <circle r="3" fill="#F9A8D4" filter="url(#glow)" opacity="0">
    <animateMotion dur="3.5s" begin="0.5s" repeatCount="indefinite" path="M1120,130 C1080,130 1080,110 1040,110 C990,110 990,100 940,100 C885,100 885,75 830,75 C780,80 780,100 730,100"/>
    <animate attributeName="opacity" values="0;0.9;0.9;0.9;0" dur="3.5s" begin="0.5s" repeatCount="indefinite"/>
    <animate attributeName="r" values="2;3.5;3;3.5;2" dur="3.5s" begin="0.5s" repeatCount="indefinite"/>
  </circle>
  <circle r="2.5" fill="#EC4899" filter="url(#glow)" opacity="0">
    <animateMotion dur="4s" begin="2s" repeatCount="indefinite" path="M1120,230 C1080,230 1080,200 1040,200 C990,200 990,190 940,190 C885,190 885,170 830,170 C780,175 780,210 730,210"/>
    <animate attributeName="opacity" values="0;0.85;0.85;0.85;0" dur="4s" begin="2s" repeatCount="indefinite"/>
  </circle>
  <circle r="2.5" fill="#FB7185" filter="url(#glow)" opacity="0">
    <animateMotion dur="4.2s" begin="3s" repeatCount="indefinite" path="M1120,80 C1080,80 1080,65 1040,65 C990,65 990,55 940,55 C885,55 885,75 830,75 C780,80 780,100 730,100"/>
    <animate attributeName="opacity" values="0;0.8;0.8;0.8;0" dur="4.2s" begin="3s" repeatCount="indefinite"/>
  </circle>

  <!-- LEFT NETWORK NODES -->
  <g filter="url(#glow)">
    <!-- Input layer - #818CF8 -->
    <circle cx="80" cy="80" r="5" fill="#818CF8" opacity="0.7">
      <animate attributeName="r" values="5;5.8;5" dur="3s" begin="0s" repeatCount="indefinite"/></circle>
    <circle cx="80" cy="130" r="5" fill="#818CF8" opacity="0.7">
      <animate attributeName="r" values="5;5.8;5" dur="3.2s" begin="0.3s" repeatCount="indefinite"/></circle>
    <circle cx="80" cy="180" r="5" fill="#818CF8" opacity="0.7">
      <animate attributeName="r" values="5;5.8;5" dur="3.4s" begin="0.6s" repeatCount="indefinite"/></circle>
    <circle cx="80" cy="230" r="5" fill="#818CF8" opacity="0.7">
      <animate attributeName="r" values="5;5.8;5" dur="3.6s" begin="0.9s" repeatCount="indefinite"/></circle>

    <!-- Hidden 1 - #6366F1 -->
    <circle cx="160" cy="65" r="4" fill="#6366F1" opacity="0.6"/>
    <circle cx="160" cy="110" r="4" fill="#6366F1" opacity="0.6"/>
    <circle cx="160" cy="155" r="4" fill="#6366F1" opacity="0.6"/>
    <circle cx="160" cy="200" r="4" fill="#6366F1" opacity="0.6"/>
    <circle cx="160" cy="245" r="4" fill="#6366F1" opacity="0.6"/>

    <!-- Hidden 2 - #8B5CF6 -->
    <circle cx="260" cy="55" r="4.5" fill="#8B5CF6" opacity="0.55"/>
    <circle cx="260" cy="100" r="4.5" fill="#8B5CF6" opacity="0.55"/>
    <circle cx="260" cy="145" r="4.5" fill="#8B5CF6" opacity="0.55"/>
    <circle cx="260" cy="190" r="4.5" fill="#8B5CF6" opacity="0.55"/>
    <circle cx="260" cy="235" r="4.5" fill="#8B5CF6" opacity="0.55"/>
    <circle cx="260" cy="265" r="4.5" fill="#8B5CF6" opacity="0.55"/>

    <!-- Hidden 3 - #A78BFA -->
    <circle cx="370" cy="75" r="4" fill="#A78BFA" opacity="0.55"/>
    <circle cx="370" cy="125" r="4" fill="#A78BFA" opacity="0.55"/>
    <circle cx="370" cy="170" r="4" fill="#A78BFA" opacity="0.55"/>
    <circle cx="370" cy="215" r="4" fill="#A78BFA" opacity="0.55"/>
    <circle cx="370" cy="255" r="4" fill="#A78BFA" opacity="0.55"/>

    <!-- Output - #C4B5FD -->
    <circle cx="470" cy="100" r="5" fill="#C4B5FD" opacity="0.7">
      <animate attributeName="r" values="5;5.8;5" dur="3s" begin="0s" repeatCount="indefinite"/></circle>
    <circle cx="470" cy="155" r="5" fill="#C4B5FD" opacity="0.7">
      <animate attributeName="r" values="5;5.8;5" dur="3.2s" begin="0.3s" repeatCount="indefinite"/></circle>
    <circle cx="470" cy="210" r="5" fill="#C4B5FD" opacity="0.7">
      <animate attributeName="r" values="5;5.8;5" dur="3.4s" begin="0.6s" repeatCount="indefinite"/></circle>
  </g>

  <!-- RIGHT NETWORK NODES -->
  <g filter="url(#glow)">
    <!-- Input layer - #F9A8D4 -->
    <circle cx="1120" cy="80" r="5" fill="#F9A8D4" opacity="0.65">
      <animate attributeName="r" values="5;5.8;5" dur="3s" begin="0s" repeatCount="indefinite"/></circle>
    <circle cx="1120" cy="130" r="5" fill="#F9A8D4" opacity="0.65">
      <animate attributeName="r" values="5;5.8;5" dur="3.2s" begin="0.3s" repeatCount="indefinite"/></circle>
    <circle cx="1120" cy="180" r="5" fill="#F9A8D4" opacity="0.65">
      <animate attributeName="r" values="5;5.8;5" dur="3.4s" begin="0.6s" repeatCount="indefinite"/></circle>
    <circle cx="1120" cy="230" r="5" fill="#F9A8D4" opacity="0.65">
      <animate attributeName="r" values="5;5.8;5" dur="3.6s" begin="0.9s" repeatCount="indefinite"/></circle>

    <!-- Hidden 1 - #EC4899 -->
    <circle cx="1040" cy="65" r="4" fill="#EC4899" opacity="0.55"/>
    <circle cx="1040" cy="110" r="4" fill="#EC4899" opacity="0.55"/>
    <circle cx="1040" cy="155" r="4" fill="#EC4899" opacity="0.55"/>
    <circle cx="1040" cy="200" r="4" fill="#EC4899" opacity="0.55"/>
    <circle cx="1040" cy="245" r="4" fill="#EC4899" opacity="0.55"/>

    <!-- Hidden 2 - #DB2777 -->
    <circle cx="940" cy="55" r="4.5" fill="#DB2777" opacity="0.50"/>
    <circle cx="940" cy="100" r="4.5" fill="#DB2777" opacity="0.50"/>
    <circle cx="940" cy="145" r="4.5" fill="#DB2777" opacity="0.50"/>
    <circle cx="940" cy="190" r="4.5" fill="#DB2777" opacity="0.50"/>
    <circle cx="940" cy="235" r="4.5" fill="#DB2777" opacity="0.50"/>
    <circle cx="940" cy="265" r="4.5" fill="#DB2777" opacity="0.50"/>

    <!-- Hidden 3 - #F472B6 -->
    <circle cx="830" cy="75" r="4" fill="#F472B6" opacity="0.50"/>
    <circle cx="830" cy="125" r="4" fill="#F472B6" opacity="0.50"/>
    <circle cx="830" cy="170" r="4" fill="#F472B6" opacity="0.50"/>
    <circle cx="830" cy="215" r="4" fill="#F472B6" opacity="0.50"/>
    <circle cx="830" cy="255" r="4" fill="#F472B6" opacity="0.50"/>

    <!-- Output - #FBCFE8 -->
    <circle cx="730" cy="100" r="5" fill="#FBCFE8" opacity="0.65">
      <animate attributeName="r" values="5;5.8;5" dur="3s" begin="0s" repeatCount="indefinite"/></circle>
    <circle cx="730" cy="155" r="5" fill="#FBCFE8" opacity="0.65">
      <animate attributeName="r" values="5;5.8;5" dur="3.2s" begin="0.3s" repeatCount="indefinite"/></circle>
    <circle cx="730" cy="210" r="5" fill="#FBCFE8" opacity="0.65">
      <animate attributeName="r" values="5;5.8;5" dur="3.4s" begin="0.6s" repeatCount="indefinite"/></circle>
  </g>

  <!-- CENTER TEXT -->
  <text x="600" y="140" text-anchor="middle" font-family="'Segoe UI','Helvetica Neue',Arial,sans-serif" font-size="52" font-weight="700" fill="url(#nameGrad)" filter="url(#textGlow)" opacity="0.3">Batuhan Edgüer</text>
  <text x="600" y="140" text-anchor="middle" font-family="'Segoe UI','Helvetica Neue',Arial,sans-serif" font-size="52" font-weight="700" fill="url(#nameGrad)">Batuhan Edgüer</text>
  <text x="600" y="175" text-anchor="middle" font-family="'Segoe UI','Helvetica Neue',Arial,sans-serif" font-size="18" font-weight="400" fill="url(#subtitleGrad)" opacity="0.8">AI Researcher &amp; ML Engineer</text>
  <line x1="510" y1="195" x2="690" y2="195" stroke="url(#nameGrad)" stroke-width="1.5" stroke-opacity="0.4">
    <animate attributeName="stroke-opacity" values="0.2;0.5;0.2" dur="3s" repeatCount="indefinite"/>
  </line>
  <text x="600" y="215" text-anchor="middle" font-family="'Segoe UI','Helvetica Neue',Arial,sans-serif" font-size="13" fill="#8b949e" opacity="0.6">Istanbul, Turkey</text>

  <rect x="0" y="280" width="1200" height="40" fill="url(#bg)" opacity="0.7"/>
</svg>
