<svg xmlns="http://www.w3.org/2000/svg" viewBox="0 0 1200 320" width="1200" height="320">
  <defs>
    <linearGradient id="bg" x1="0" y1="0" x2="1" y2="1">
      <stop offset="0%" stop-color="#0d1117"/>
      <stop offset="100%" stop-color="#161b22"/>
    </linearGradient>
    <linearGradient id="nameGrad" x1="0" y1="0" x2="1" y2="0">
      <stop offset="0%" stop-color="#6366F1"/>
      <stop offset="100%" stop-color="#EC4899"/>
    </linearGradient>
    <linearGradient id="subtitleGrad" x1="0" y1="0" x2="1" y2="0">
      <stop offset="0%" stop-color="#A5B4FC"/>
      <stop offset="100%" stop-color="#F9A8D4"/>
    </linearGradient>
    <filter id="glow">
      <feGaussianBlur in="SourceGraphic" stdDeviation="2" result="blur"/>
      <feMerge><feMergeNode in="blur"/><feMergeNode in="SourceGraphic"/></feMerge>
    </filter>
    <filter id="textGlow">
      <feGaussianBlur in="SourceGraphic" stdDeviation="6"/>
    </filter>
  </defs>

  <rect width="1200" height="320" fill="url(#bg)"/>

  <!-- Subtle grid -->
  <g stroke="#6366F1" stroke-opacity="0.03" stroke-width="0.5">
    <line x1="0" y1="40" x2="1200" y2="40"/><line x1="0" y1="80" x2="1200" y2="80"/>
    <line x1="0" y1="120" x2="1200" y2="120"/><line x1="0" y1="160" x2="1200" y2="160"/>
    <line x1="0" y1="200" x2="1200" y2="200"/><line x1="0" y1="240" x2="1200" y2="240"/>
    <line x1="0" y1="280" x2="1200" y2="280"/>
    <line x1="100" y1="0" x2="100" y2="320"/><line x1="200" y1="0" x2="200" y2="320"/>
    <line x1="300" y1="0" x2="300" y2="320"/><line x1="400" y1="0" x2="400" y2="320"/>
    <line x1="500" y1="0" x2="500" y2="320"/><line x1="600" y1="0" x2="600" y2="320"/>
    <line x1="700" y1="0" x2="700" y2="320"/><line x1="800" y1="0" x2="800" y2="320"/>
    <line x1="900" y1="0" x2="900" y2="320"/><line x1="1000" y1="0" x2="1000" y2="320"/>
    <line x1="1100" y1="0" x2="1100" y2="320"/>
  </g>

  <!-- LEFT NETWORK EDGES (fully connected) -->
  <g stroke="#6366F1" stroke-opacity="0.12" stroke-width="0.5">
    <line x1="60" y1="60" x2="140" y2="40"/>
    <line x1="60" y1="60" x2="140" y2="80"/>
    <line x1="60" y1="60" x2="140" y2="110"/>
    <line x1="60" y1="60" x2="140" y2="140"/>
    <line x1="60" y1="60" x2="140" y2="170"/>
    <line x1="60" y1="60" x2="140" y2="200"/>
    <line x1="60" y1="60" x2="140" y2="240"/>
    <line x1="60" y1="100" x2="140" y2="40"/>
    <line x1="60" y1="100" x2="140" y2="80"/>
    <line x1="60" y1="100" x2="140" y2="110"/>
    <line x1="60" y1="100" x2="140" y2="140"/>
    <line x1="60" y1="100" x2="140" y2="170"/>
    <line x1="60" y1="100" x2="140" y2="200"/>
    <line x1="60" y1="100" x2="140" y2="240"/>
    <line x1="60" y1="140" x2="140" y2="40"/>
    <line x1="60" y1="140" x2="140" y2="80"/>
    <line x1="60" y1="140" x2="140" y2="110"/>
    <line x1="60" y1="140" x2="140" y2="140"/>
    <line x1="60" y1="140" x2="140" y2="170"/>
    <line x1="60" y1="140" x2="140" y2="200"/>
    <line x1="60" y1="140" x2="140" y2="240"/>
    <line x1="60" y1="180" x2="140" y2="40"/>
    <line x1="60" y1="180" x2="140" y2="80"/>
    <line x1="60" y1="180" x2="140" y2="110"/>
    <line x1="60" y1="180" x2="140" y2="140"/>
    <line x1="60" y1="180" x2="140" y2="170"/>
    <line x1="60" y1="180" x2="140" y2="200"/>
    <line x1="60" y1="180" x2="140" y2="240"/>
    <line x1="60" y1="220" x2="140" y2="40"/>
    <line x1="60" y1="220" x2="140" y2="80"/>
    <line x1="60" y1="220" x2="140" y2="110"/>
    <line x1="60" y1="220" x2="140" y2="140"/>
    <line x1="60" y1="220" x2="140" y2="170"/>
    <line x1="60" y1="220" x2="140" y2="200"/>
    <line x1="60" y1="220" x2="140" y2="240"/>
    <line x1="140" y1="40" x2="220" y2="30"/>
    <line x1="140" y1="40" x2="220" y2="65"/>
    <line x1="140" y1="40" x2="220" y2="100"/>
    <line x1="140" y1="40" x2="220" y2="135"/>
    <line x1="140" y1="40" x2="220" y2="165"/>
    <line x1="140" y1="40" x2="220" y2="200"/>
    <line x1="140" y1="40" x2="220" y2="235"/>
    <line x1="140" y1="40" x2="220" y2="265"/>
    <line x1="140" y1="80" x2="220" y2="30"/>
    <line x1="140" y1="80" x2="220" y2="65"/>
    <line x1="140" y1="80" x2="220" y2="100"/>
    <line x1="140" y1="80" x2="220" y2="135"/>
    <line x1="140" y1="80" x2="220" y2="165"/>
    <line x1="140" y1="80" x2="220" y2="200"/>
    <line x1="140" y1="80" x2="220" y2="235"/>
    <line x1="140" y1="80" x2="220" y2="265"/>
    <line x1="140" y1="110" x2="220" y2="30"/>
    <line x1="140" y1="110" x2="220" y2="65"/>
    <line x1="140" y1="110" x2="220" y2="100"/>
    <line x1="140" y1="110" x2="220" y2="135"/>
    <line x1="140" y1="110" x2="220" y2="165"/>
    <line x1="140" y1="110" x2="220" y2="200"/>
    <line x1="140" y1="110" x2="220" y2="235"/>
    <line x1="140" y1="110" x2="220" y2="265"/>
    <line x1="140" y1="140" x2="220" y2="30"/>
    <line x1="140" y1="140" x2="220" y2="65"/>
    <line x1="140" y1="140" x2="220" y2="100"/>
    <line x1="140" y1="140" x2="220" y2="135"/>
    <line x1="140" y1="140" x2="220" y2="165"/>
    <line x1="140" y1="140" x2="220" y2="200"/>
    <line x1="140" y1="140" x2="220" y2="235"/>
    <line x1="140" y1="140" x2="220" y2="265"/>
    <line x1="140" y1="170" x2="220" y2="30"/>
    <line x1="140" y1="170" x2="220" y2="65"/>
    <line x1="140" y1="170" x2="220" y2="100"/>
    <line x1="140" y1="170" x2="220" y2="135"/>
    <line x1="140" y1="170" x2="220" y2="165"/>
    <line x1="140" y1="170" x2="220" y2="200"/>
    <line x1="140" y1="170" x2="220" y2="235"/>
    <line x1="140" y1="170" x2="220" y2="265"/>
    <line x1="140" y1="200" x2="220" y2="30"/>
    <line x1="140" y1="200" x2="220" y2="65"/>
    <line x1="140" y1="200" x2="220" y2="100"/>
    <line x1="140" y1="200" x2="220" y2="135"/>
    <line x1="140" y1="200" x2="220" y2="165"/>
    <line x1="140" y1="200" x2="220" y2="200"/>
    <line x1="140" y1="200" x2="220" y2="235"/>
    <line x1="140" y1="200" x2="220" y2="265"/>
    <line x1="140" y1="240" x2="220" y2="30"/>
    <line x1="140" y1="240" x2="220" y2="65"/>
    <line x1="140" y1="240" x2="220" y2="100"/>
    <line x1="140" y1="240" x2="220" y2="135"/>
    <line x1="140" y1="240" x2="220" y2="165"/>
    <line x1="140" y1="240" x2="220" y2="200"/>
    <line x1="140" y1="240" x2="220" y2="235"/>
    <line x1="140" y1="240" x2="220" y2="265"/>
    <line x1="220" y1="30" x2="300" y2="30"/>
    <line x1="220" y1="30" x2="300" y2="65"/>
    <line x1="220" y1="30" x2="300" y2="100"/>
    <line x1="220" y1="30" x2="300" y2="135"/>
    <line x1="220" y1="30" x2="300" y2="165"/>
    <line x1="220" y1="30" x2="300" y2="200"/>
    <line x1="220" y1="30" x2="300" y2="235"/>
    <line x1="220" y1="30" x2="300" y2="265"/>
    <line x1="220" y1="65" x2="300" y2="30"/>
    <line x1="220" y1="65" x2="300" y2="65"/>
    <line x1="220" y1="65" x2="300" y2="100"/>
    <line x1="220" y1="65" x2="300" y2="135"/>
    <line x1="220" y1="65" x2="300" y2="165"/>
    <line x1="220" y1="65" x2="300" y2="200"/>
    <line x1="220" y1="65" x2="300" y2="235"/>
    <line x1="220" y1="65" x2="300" y2="265"/>
    <line x1="220" y1="100" x2="300" y2="30"/>
    <line x1="220" y1="100" x2="300" y2="65"/>
    <line x1="220" y1="100" x2="300" y2="100"/>
    <line x1="220" y1="100" x2="300" y2="135"/>
    <line x1="220" y1="100" x2="300" y2="165"/>
    <line x1="220" y1="100" x2="300" y2="200"/>
    <line x1="220" y1="100" x2="300" y2="235"/>
    <line x1="220" y1="100" x2="300" y2="265"/>
    <line x1="220" y1="135" x2="300" y2="30"/>
    <line x1="220" y1="135" x2="300" y2="65"/>
    <line x1="220" y1="135" x2="300" y2="100"/>
    <line x1="220" y1="135" x2="300" y2="135"/>
    <line x1="220" y1="135" x2="300" y2="165"/>
    <line x1="220" y1="135" x2="300" y2="200"/>
    <line x1="220" y1="135" x2="300" y2="235"/>
    <line x1="220" y1="135" x2="300" y2="265"/>
    <line x1="220" y1="165" x2="300" y2="30"/>
    <line x1="220" y1="165" x2="300" y2="65"/>
    <line x1="220" y1="165" x2="300" y2="100"/>
    <line x1="220" y1="165" x2="300" y2="135"/>
    <line x1="220" y1="165" x2="300" y2="165"/>
    <line x1="220" y1="165" x2="300" y2="200"/>
    <line x1="220" y1="165" x2="300" y2="235"/>
    <line x1="220" y1="165" x2="300" y2="265"/>
    <line x1="220" y1="200" x2="300" y2="30"/>
    <line x1="220" y1="200" x2="300" y2="65"/>
    <line x1="220" y1="200" x2="300" y2="100"/>
    <line x1="220" y1="200" x2="300" y2="135"/>
    <line x1="220" y1="200" x2="300" y2="165"/>
    <line x1="220" y1="200" x2="300" y2="200"/>
    <line x1="220" y1="200" x2="300" y2="235"/>
    <line x1="220" y1="200" x2="300" y2="265"/>
    <line x1="220" y1="235" x2="300" y2="30"/>
    <line x1="220" y1="235" x2="300" y2="65"/>
    <line x1="220" y1="235" x2="300" y2="100"/>
    <line x1="220" y1="235" x2="300" y2="135"/>
    <line x1="220" y1="235" x2="300" y2="165"/>
    <line x1="220" y1="235" x2="300" y2="200"/>
    <line x1="220" y1="235" x2="300" y2="235"/>
    <line x1="220" y1="235" x2="300" y2="265"/>
    <line x1="220" y1="265" x2="300" y2="30"/>
    <line x1="220" y1="265" x2="300" y2="65"/>
    <line x1="220" y1="265" x2="300" y2="100"/>
    <line x1="220" y1="265" x2="300" y2="135"/>
    <line x1="220" y1="265" x2="300" y2="165"/>
    <line x1="220" y1="265" x2="300" y2="200"/>
    <line x1="220" y1="265" x2="300" y2="235"/>
    <line x1="220" y1="265" x2="300" y2="265"/>
    <line x1="300" y1="30" x2="380" y2="40"/>
    <line x1="300" y1="30" x2="380" y2="80"/>
    <line x1="300" y1="30" x2="380" y2="110"/>
    <line x1="300" y1="30" x2="380" y2="140"/>
    <line x1="300" y1="30" x2="380" y2="170"/>
    <line x1="300" y1="30" x2="380" y2="200"/>
    <line x1="300" y1="30" x2="380" y2="240"/>
    <line x1="300" y1="65" x2="380" y2="40"/>
    <line x1="300" y1="65" x2="380" y2="80"/>
    <line x1="300" y1="65" x2="380" y2="110"/>
    <line x1="300" y1="65" x2="380" y2="140"/>
    <line x1="300" y1="65" x2="380" y2="170"/>
    <line x1="300" y1="65" x2="380" y2="200"/>
    <line x1="300" y1="65" x2="380" y2="240"/>
    <line x1="300" y1="100" x2="380" y2="40"/>
    <line x1="300" y1="100" x2="380" y2="80"/>
    <line x1="300" y1="100" x2="380" y2="110"/>
    <line x1="300" y1="100" x2="380" y2="140"/>
    <line x1="300" y1="100" x2="380" y2="170"/>
    <line x1="300" y1="100" x2="380" y2="200"/>
    <line x1="300" y1="100" x2="380" y2="240"/>
    <line x1="300" y1="135" x2="380" y2="40"/>
    <line x1="300" y1="135" x2="380" y2="80"/>
    <line x1="300" y1="135" x2="380" y2="110"/>
    <line x1="300" y1="135" x2="380" y2="140"/>
    <line x1="300" y1="135" x2="380" y2="170"/>
    <line x1="300" y1="135" x2="380" y2="200"/>
    <line x1="300" y1="135" x2="380" y2="240"/>
    <line x1="300" y1="165" x2="380" y2="40"/>
    <line x1="300" y1="165" x2="380" y2="80"/>
    <line x1="300" y1="165" x2="380" y2="110"/>
    <line x1="300" y1="165" x2="380" y2="140"/>
    <line x1="300" y1="165" x2="380" y2="170"/>
    <line x1="300" y1="165" x2="380" y2="200"/>
    <line x1="300" y1="165" x2="380" y2="240"/>
    <line x1="300" y1="200" x2="380" y2="40"/>
    <line x1="300" y1="200" x2="380" y2="80"/>
    <line x1="300" y1="200" x2="380" y2="110"/>
    <line x1="300" y1="200" x2="380" y2="140"/>
    <line x1="300" y1="200" x2="380" y2="170"/>
    <line x1="300" y1="200" x2="380" y2="200"/>
    <line x1="300" y1="200" x2="380" y2="240"/>
    <line x1="300" y1="235" x2="380" y2="40"/>
    <line x1="300" y1="235" x2="380" y2="80"/>
    <line x1="300" y1="235" x2="380" y2="110"/>
    <line x1="300" y1="235" x2="380" y2="140"/>
    <line x1="300" y1="235" x2="380" y2="170"/>
    <line x1="300" y1="235" x2="380" y2="200"/>
    <line x1="300" y1="235" x2="380" y2="240"/>
    <line x1="300" y1="265" x2="380" y2="40"/>
    <line x1="300" y1="265" x2="380" y2="80"/>
    <line x1="300" y1="265" x2="380" y2="110"/>
    <line x1="300" y1="265" x2="380" y2="140"/>
    <line x1="300" y1="265" x2="380" y2="170"/>
    <line x1="300" y1="265" x2="380" y2="200"/>
    <line x1="300" y1="265" x2="380" y2="240"/>
    <line x1="380" y1="40" x2="460" y2="60"/>
    <line x1="380" y1="40" x2="460" y2="100"/>
    <line x1="380" y1="40" x2="460" y2="140"/>
    <line x1="380" y1="40" x2="460" y2="180"/>
    <line x1="380" y1="40" x2="460" y2="220"/>
    <line x1="380" y1="80" x2="460" y2="60"/>
    <line x1="380" y1="80" x2="460" y2="100"/>
    <line x1="380" y1="80" x2="460" y2="140"/>
    <line x1="380" y1="80" x2="460" y2="180"/>
    <line x1="380" y1="80" x2="460" y2="220"/>
    <line x1="380" y1="110" x2="460" y2="60"/>
    <line x1="380" y1="110" x2="460" y2="100"/>
    <line x1="380" y1="110" x2="460" y2="140"/>
    <line x1="380" y1="110" x2="460" y2="180"/>
    <line x1="380" y1="110" x2="460" y2="220"/>
    <line x1="380" y1="140" x2="460" y2="60"/>
    <line x1="380" y1="140" x2="460" y2="100"/>
    <line x1="380" y1="140" x2="460" y2="140"/>
    <line x1="380" y1="140" x2="460" y2="180"/>
    <line x1="380" y1="140" x2="460" y2="220"/>
    <line x1="380" y1="170" x2="460" y2="60"/>
    <line x1="380" y1="170" x2="460" y2="100"/>
    <line x1="380" y1="170" x2="460" y2="140"/>
    <line x1="380" y1="170" x2="460" y2="180"/>
    <line x1="380" y1="170" x2="460" y2="220"/>
    <line x1="380" y1="200" x2="460" y2="60"/>
    <line x1="380" y1="200" x2="460" y2="100"/>
    <line x1="380" y1="200" x2="460" y2="140"/>
    <line x1="380" y1="200" x2="460" y2="180"/>
    <line x1="380" y1="200" x2="460" y2="220"/>
    <line x1="380" y1="240" x2="460" y2="60"/>
    <line x1="380" y1="240" x2="460" y2="100"/>
    <line x1="380" y1="240" x2="460" y2="140"/>
    <line x1="380" y1="240" x2="460" y2="180"/>
    <line x1="380" y1="240" x2="460" y2="220"/>
    <line x1="460" y1="60" x2="540" y2="110"/>
    <line x1="460" y1="60" x2="540" y2="160"/>
    <line x1="460" y1="60" x2="540" y2="210"/>
    <line x1="460" y1="100" x2="540" y2="110"/>
    <line x1="460" y1="100" x2="540" y2="160"/>
    <line x1="460" y1="100" x2="540" y2="210"/>
    <line x1="460" y1="140" x2="540" y2="110"/>
    <line x1="460" y1="140" x2="540" y2="160"/>
    <line x1="460" y1="140" x2="540" y2="210"/>
    <line x1="460" y1="180" x2="540" y2="110"/>
    <line x1="460" y1="180" x2="540" y2="160"/>
    <line x1="460" y1="180" x2="540" y2="210"/>
    <line x1="460" y1="220" x2="540" y2="110"/>
    <line x1="460" y1="220" x2="540" y2="160"/>
    <line x1="460" y1="220" x2="540" y2="210"/>
  </g>

  <!-- RIGHT NETWORK EDGES (fully connected) -->
  <g stroke="#EC4899" stroke-opacity="0.10" stroke-width="0.5">
    <line x1="1140" y1="60" x2="1060" y2="40"/>
    <line x1="1140" y1="60" x2="1060" y2="80"/>
    <line x1="1140" y1="60" x2="1060" y2="110"/>
    <line x1="1140" y1="60" x2="1060" y2="140"/>
    <line x1="1140" y1="60" x2="1060" y2="170"/>
    <line x1="1140" y1="60" x2="1060" y2="200"/>
    <line x1="1140" y1="60" x2="1060" y2="240"/>
    <line x1="1140" y1="60" x2="1060" y2="270"/>
    <line x1="1140" y1="100" x2="1060" y2="40"/>
    <line x1="1140" y1="100" x2="1060" y2="80"/>
    <line x1="1140" y1="100" x2="1060" y2="110"/>
    <line x1="1140" y1="100" x2="1060" y2="140"/>
    <line x1="1140" y1="100" x2="1060" y2="170"/>
    <line x1="1140" y1="100" x2="1060" y2="200"/>
    <line x1="1140" y1="100" x2="1060" y2="240"/>
    <line x1="1140" y1="100" x2="1060" y2="270"/>
    <line x1="1140" y1="140" x2="1060" y2="40"/>
    <line x1="1140" y1="140" x2="1060" y2="80"/>
    <line x1="1140" y1="140" x2="1060" y2="110"/>
    <line x1="1140" y1="140" x2="1060" y2="140"/>
    <line x1="1140" y1="140" x2="1060" y2="170"/>
    <line x1="1140" y1="140" x2="1060" y2="200"/>
    <line x1="1140" y1="140" x2="1060" y2="240"/>
    <line x1="1140" y1="140" x2="1060" y2="270"/>
    <line x1="1140" y1="180" x2="1060" y2="40"/>
    <line x1="1140" y1="180" x2="1060" y2="80"/>
    <line x1="1140" y1="180" x2="1060" y2="110"/>
    <line x1="1140" y1="180" x2="1060" y2="140"/>
    <line x1="1140" y1="180" x2="1060" y2="170"/>
    <line x1="1140" y1="180" x2="1060" y2="200"/>
    <line x1="1140" y1="180" x2="1060" y2="240"/>
    <line x1="1140" y1="180" x2="1060" y2="270"/>
    <line x1="1140" y1="220" x2="1060" y2="40"/>
    <line x1="1140" y1="220" x2="1060" y2="80"/>
    <line x1="1140" y1="220" x2="1060" y2="110"/>
    <line x1="1140" y1="220" x2="1060" y2="140"/>
    <line x1="1140" y1="220" x2="1060" y2="170"/>
    <line x1="1140" y1="220" x2="1060" y2="200"/>
    <line x1="1140" y1="220" x2="1060" y2="240"/>
    <line x1="1140" y1="220" x2="1060" y2="270"/>
    <line x1="1140" y1="260" x2="1060" y2="40"/>
    <line x1="1140" y1="260" x2="1060" y2="80"/>
    <line x1="1140" y1="260" x2="1060" y2="110"/>
    <line x1="1140" y1="260" x2="1060" y2="140"/>
    <line x1="1140" y1="260" x2="1060" y2="170"/>
    <line x1="1140" y1="260" x2="1060" y2="200"/>
    <line x1="1140" y1="260" x2="1060" y2="240"/>
    <line x1="1140" y1="260" x2="1060" y2="270"/>
    <line x1="1060" y1="40" x2="980" y2="30"/>
    <line x1="1060" y1="40" x2="980" y2="65"/>
    <line x1="1060" y1="40" x2="980" y2="100"/>
    <line x1="1060" y1="40" x2="980" y2="135"/>
    <line x1="1060" y1="40" x2="980" y2="165"/>
    <line x1="1060" y1="40" x2="980" y2="200"/>
    <line x1="1060" y1="40" x2="980" y2="235"/>
    <line x1="1060" y1="40" x2="980" y2="265"/>
    <line x1="1060" y1="80" x2="980" y2="30"/>
    <line x1="1060" y1="80" x2="980" y2="65"/>
    <line x1="1060" y1="80" x2="980" y2="100"/>
    <line x1="1060" y1="80" x2="980" y2="135"/>
    <line x1="1060" y1="80" x2="980" y2="165"/>
    <line x1="1060" y1="80" x2="980" y2="200"/>
    <line x1="1060" y1="80" x2="980" y2="235"/>
    <line x1="1060" y1="80" x2="980" y2="265"/>
    <line x1="1060" y1="110" x2="980" y2="30"/>
    <line x1="1060" y1="110" x2="980" y2="65"/>
    <line x1="1060" y1="110" x2="980" y2="100"/>
    <line x1="1060" y1="110" x2="980" y2="135"/>
    <line x1="1060" y1="110" x2="980" y2="165"/>
    <line x1="1060" y1="110" x2="980" y2="200"/>
    <line x1="1060" y1="110" x2="980" y2="235"/>
    <line x1="1060" y1="110" x2="980" y2="265"/>
    <line x1="1060" y1="140" x2="980" y2="30"/>
    <line x1="1060" y1="140" x2="980" y2="65"/>
    <line x1="1060" y1="140" x2="980" y2="100"/>
    <line x1="1060" y1="140" x2="980" y2="135"/>
    <line x1="1060" y1="140" x2="980" y2="165"/>
    <line x1="1060" y1="140" x2="980" y2="200"/>
    <line x1="1060" y1="140" x2="980" y2="235"/>
    <line x1="1060" y1="140" x2="980" y2="265"/>
    <line x1="1060" y1="170" x2="980" y2="30"/>
    <line x1="1060" y1="170" x2="980" y2="65"/>
    <line x1="1060" y1="170" x2="980" y2="100"/>
    <line x1="1060" y1="170" x2="980" y2="135"/>
    <line x1="1060" y1="170" x2="980" y2="165"/>
    <line x1="1060" y1="170" x2="980" y2="200"/>
    <line x1="1060" y1="170" x2="980" y2="235"/>
    <line x1="1060" y1="170" x2="980" y2="265"/>
    <line x1="1060" y1="200" x2="980" y2="30"/>
    <line x1="1060" y1="200" x2="980" y2="65"/>
    <line x1="1060" y1="200" x2="980" y2="100"/>
    <line x1="1060" y1="200" x2="980" y2="135"/>
    <line x1="1060" y1="200" x2="980" y2="165"/>
    <line x1="1060" y1="200" x2="980" y2="200"/>
    <line x1="1060" y1="200" x2="980" y2="235"/>
    <line x1="1060" y1="200" x2="980" y2="265"/>
    <line x1="1060" y1="240" x2="980" y2="30"/>
    <line x1="1060" y1="240" x2="980" y2="65"/>
    <line x1="1060" y1="240" x2="980" y2="100"/>
    <line x1="1060" y1="240" x2="980" y2="135"/>
    <line x1="1060" y1="240" x2="980" y2="165"/>
    <line x1="1060" y1="240" x2="980" y2="200"/>
    <line x1="1060" y1="240" x2="980" y2="235"/>
    <line x1="1060" y1="240" x2="980" y2="265"/>
    <line x1="1060" y1="270" x2="980" y2="30"/>
    <line x1="1060" y1="270" x2="980" y2="65"/>
    <line x1="1060" y1="270" x2="980" y2="100"/>
    <line x1="1060" y1="270" x2="980" y2="135"/>
    <line x1="1060" y1="270" x2="980" y2="165"/>
    <line x1="1060" y1="270" x2="980" y2="200"/>
    <line x1="1060" y1="270" x2="980" y2="235"/>
    <line x1="1060" y1="270" x2="980" y2="265"/>
    <line x1="980" y1="30" x2="900" y2="30"/>
    <line x1="980" y1="30" x2="900" y2="65"/>
    <line x1="980" y1="30" x2="900" y2="100"/>
    <line x1="980" y1="30" x2="900" y2="135"/>
    <line x1="980" y1="30" x2="900" y2="165"/>
    <line x1="980" y1="30" x2="900" y2="200"/>
    <line x1="980" y1="30" x2="900" y2="235"/>
    <line x1="980" y1="30" x2="900" y2="265"/>
    <line x1="980" y1="65" x2="900" y2="30"/>
    <line x1="980" y1="65" x2="900" y2="65"/>
    <line x1="980" y1="65" x2="900" y2="100"/>
    <line x1="980" y1="65" x2="900" y2="135"/>
    <line x1="980" y1="65" x2="900" y2="165"/>
    <line x1="980" y1="65" x2="900" y2="200"/>
    <line x1="980" y1="65" x2="900" y2="235"/>
    <line x1="980" y1="65" x2="900" y2="265"/>
    <line x1="980" y1="100" x2="900" y2="30"/>
    <line x1="980" y1="100" x2="900" y2="65"/>
    <line x1="980" y1="100" x2="900" y2="100"/>
    <line x1="980" y1="100" x2="900" y2="135"/>
    <line x1="980" y1="100" x2="900" y2="165"/>
    <line x1="980" y1="100" x2="900" y2="200"/>
    <line x1="980" y1="100" x2="900" y2="235"/>
    <line x1="980" y1="100" x2="900" y2="265"/>
    <line x1="980" y1="135" x2="900" y2="30"/>
    <line x1="980" y1="135" x2="900" y2="65"/>
    <line x1="980" y1="135" x2="900" y2="100"/>
    <line x1="980" y1="135" x2="900" y2="135"/>
    <line x1="980" y1="135" x2="900" y2="165"/>
    <line x1="980" y1="135" x2="900" y2="200"/>
    <line x1="980" y1="135" x2="900" y2="235"/>
    <line x1="980" y1="135" x2="900" y2="265"/>
    <line x1="980" y1="165" x2="900" y2="30"/>
    <line x1="980" y1="165" x2="900" y2="65"/>
    <line x1="980" y1="165" x2="900" y2="100"/>
    <line x1="980" y1="165" x2="900" y2="135"/>
    <line x1="980" y1="165" x2="900" y2="165"/>
    <line x1="980" y1="165" x2="900" y2="200"/>
    <line x1="980" y1="165" x2="900" y2="235"/>
    <line x1="980" y1="165" x2="900" y2="265"/>
    <line x1="980" y1="200" x2="900" y2="30"/>
    <line x1="980" y1="200" x2="900" y2="65"/>
    <line x1="980" y1="200" x2="900" y2="100"/>
    <line x1="980" y1="200" x2="900" y2="135"/>
    <line x1="980" y1="200" x2="900" y2="165"/>
    <line x1="980" y1="200" x2="900" y2="200"/>
    <line x1="980" y1="200" x2="900" y2="235"/>
    <line x1="980" y1="200" x2="900" y2="265"/>
    <line x1="980" y1="235" x2="900" y2="30"/>
    <line x1="980" y1="235" x2="900" y2="65"/>
    <line x1="980" y1="235" x2="900" y2="100"/>
    <line x1="980" y1="235" x2="900" y2="135"/>
    <line x1="980" y1="235" x2="900" y2="165"/>
    <line x1="980" y1="235" x2="900" y2="200"/>
    <line x1="980" y1="235" x2="900" y2="235"/>
    <line x1="980" y1="235" x2="900" y2="265"/>
    <line x1="980" y1="265" x2="900" y2="30"/>
    <line x1="980" y1="265" x2="900" y2="65"/>
    <line x1="980" y1="265" x2="900" y2="100"/>
    <line x1="980" y1="265" x2="900" y2="135"/>
    <line x1="980" y1="265" x2="900" y2="165"/>
    <line x1="980" y1="265" x2="900" y2="200"/>
    <line x1="980" y1="265" x2="900" y2="235"/>
    <line x1="980" y1="265" x2="900" y2="265"/>
    <line x1="900" y1="30" x2="820" y2="40"/>
    <line x1="900" y1="30" x2="820" y2="80"/>
    <line x1="900" y1="30" x2="820" y2="110"/>
    <line x1="900" y1="30" x2="820" y2="140"/>
    <line x1="900" y1="30" x2="820" y2="170"/>
    <line x1="900" y1="30" x2="820" y2="200"/>
    <line x1="900" y1="30" x2="820" y2="240"/>
    <line x1="900" y1="65" x2="820" y2="40"/>
    <line x1="900" y1="65" x2="820" y2="80"/>
    <line x1="900" y1="65" x2="820" y2="110"/>
    <line x1="900" y1="65" x2="820" y2="140"/>
    <line x1="900" y1="65" x2="820" y2="170"/>
    <line x1="900" y1="65" x2="820" y2="200"/>
    <line x1="900" y1="65" x2="820" y2="240"/>
    <line x1="900" y1="100" x2="820" y2="40"/>
    <line x1="900" y1="100" x2="820" y2="80"/>
    <line x1="900" y1="100" x2="820" y2="110"/>
    <line x1="900" y1="100" x2="820" y2="140"/>
    <line x1="900" y1="100" x2="820" y2="170"/>
    <line x1="900" y1="100" x2="820" y2="200"/>
    <line x1="900" y1="100" x2="820" y2="240"/>
    <line x1="900" y1="135" x2="820" y2="40"/>
    <line x1="900" y1="135" x2="820" y2="80"/>
    <line x1="900" y1="135" x2="820" y2="110"/>
    <line x1="900" y1="135" x2="820" y2="140"/>
    <line x1="900" y1="135" x2="820" y2="170"/>
    <line x1="900" y1="135" x2="820" y2="200"/>
    <line x1="900" y1="135" x2="820" y2="240"/>
    <line x1="900" y1="165" x2="820" y2="40"/>
    <line x1="900" y1="165" x2="820" y2="80"/>
    <line x1="900" y1="165" x2="820" y2="110"/>
    <line x1="900" y1="165" x2="820" y2="140"/>
    <line x1="900" y1="165" x2="820" y2="170"/>
    <line x1="900" y1="165" x2="820" y2="200"/>
    <line x1="900" y1="165" x2="820" y2="240"/>
    <line x1="900" y1="200" x2="820" y2="40"/>
    <line x1="900" y1="200" x2="820" y2="80"/>
    <line x1="900" y1="200" x2="820" y2="110"/>
    <line x1="900" y1="200" x2="820" y2="140"/>
    <line x1="900" y1="200" x2="820" y2="170"/>
    <line x1="900" y1="200" x2="820" y2="200"/>
    <line x1="900" y1="200" x2="820" y2="240"/>
    <line x1="900" y1="235" x2="820" y2="40"/>
    <line x1="900" y1="235" x2="820" y2="80"/>
    <line x1="900" y1="235" x2="820" y2="110"/>
    <line x1="900" y1="235" x2="820" y2="140"/>
    <line x1="900" y1="235" x2="820" y2="170"/>
    <line x1="900" y1="235" x2="820" y2="200"/>
    <line x1="900" y1="235" x2="820" y2="240"/>
    <line x1="900" y1="265" x2="820" y2="40"/>
    <line x1="900" y1="265" x2="820" y2="80"/>
    <line x1="900" y1="265" x2="820" y2="110"/>
    <line x1="900" y1="265" x2="820" y2="140"/>
    <line x1="900" y1="265" x2="820" y2="170"/>
    <line x1="900" y1="265" x2="820" y2="200"/>
    <line x1="900" y1="265" x2="820" y2="240"/>
    <line x1="820" y1="40" x2="740" y2="60"/>
    <line x1="820" y1="40" x2="740" y2="100"/>
    <line x1="820" y1="40" x2="740" y2="140"/>
    <line x1="820" y1="40" x2="740" y2="180"/>
    <line x1="820" y1="40" x2="740" y2="220"/>
    <line x1="820" y1="80" x2="740" y2="60"/>
    <line x1="820" y1="80" x2="740" y2="100"/>
    <line x1="820" y1="80" x2="740" y2="140"/>
    <line x1="820" y1="80" x2="740" y2="180"/>
    <line x1="820" y1="80" x2="740" y2="220"/>
    <line x1="820" y1="110" x2="740" y2="60"/>
    <line x1="820" y1="110" x2="740" y2="100"/>
    <line x1="820" y1="110" x2="740" y2="140"/>
    <line x1="820" y1="110" x2="740" y2="180"/>
    <line x1="820" y1="110" x2="740" y2="220"/>
    <line x1="820" y1="140" x2="740" y2="60"/>
    <line x1="820" y1="140" x2="740" y2="100"/>
    <line x1="820" y1="140" x2="740" y2="140"/>
    <line x1="820" y1="140" x2="740" y2="180"/>
    <line x1="820" y1="140" x2="740" y2="220"/>
    <line x1="820" y1="170" x2="740" y2="60"/>
    <line x1="820" y1="170" x2="740" y2="100"/>
    <line x1="820" y1="170" x2="740" y2="140"/>
    <line x1="820" y1="170" x2="740" y2="180"/>
    <line x1="820" y1="170" x2="740" y2="220"/>
    <line x1="820" y1="200" x2="740" y2="60"/>
    <line x1="820" y1="200" x2="740" y2="100"/>
    <line x1="820" y1="200" x2="740" y2="140"/>
    <line x1="820" y1="200" x2="740" y2="180"/>
    <line x1="820" y1="200" x2="740" y2="220"/>
    <line x1="820" y1="240" x2="740" y2="60"/>
    <line x1="820" y1="240" x2="740" y2="100"/>
    <line x1="820" y1="240" x2="740" y2="140"/>
    <line x1="820" y1="240" x2="740" y2="180"/>
    <line x1="820" y1="240" x2="740" y2="220"/>
    <line x1="740" y1="60" x2="660" y2="110"/>
    <line x1="740" y1="60" x2="660" y2="160"/>
    <line x1="740" y1="60" x2="660" y2="210"/>
    <line x1="740" y1="100" x2="660" y2="110"/>
    <line x1="740" y1="100" x2="660" y2="160"/>
    <line x1="740" y1="100" x2="660" y2="210"/>
    <line x1="740" y1="140" x2="660" y2="110"/>
    <line x1="740" y1="140" x2="660" y2="160"/>
    <line x1="740" y1="140" x2="660" y2="210"/>
    <line x1="740" y1="180" x2="660" y2="110"/>
    <line x1="740" y1="180" x2="660" y2="160"/>
    <line x1="740" y1="180" x2="660" y2="210"/>
    <line x1="740" y1="220" x2="660" y2="110"/>
    <line x1="740" y1="220" x2="660" y2="160"/>
    <line x1="740" y1="220" x2="660" y2="210"/>
  </g>

  <!-- ANIMATED PULSES (left) -->
  <circle r="3" fill="#6366F1" filter="url(#glow)" opacity="0">
    <animateMotion dur="4s" repeatCount="indefinite" path="M60,140 L140,110 L220,135 L300,135 L380,140 L460,140 L540,160"/>
    <animate attributeName="opacity" values="0;0.9;0.9;0.9;0.9;0.9;0" dur="4s" repeatCount="indefinite"/>
    <animate attributeName="r" values="2;3;3.5;3;3.5;3;2" dur="4s" repeatCount="indefinite"/>
  </circle>
  <circle r="2.5" fill="#818CF8" filter="url(#glow)" opacity="0">
    <animateMotion dur="4.5s" begin="1.2s" repeatCount="indefinite" path="M60,60 L140,40 L220,30 L300,65 L380,80 L460,60 L540,110"/>
    <animate attributeName="opacity" values="0;0.8;0.8;0.8;0.8;0.8;0" dur="4.5s" begin="1.2s" repeatCount="indefinite"/>
  </circle>
  <circle r="2.5" fill="#EC4899" filter="url(#glow)" opacity="0">
    <animateMotion dur="3.8s" begin="2.5s" repeatCount="indefinite" path="M60,220 L140,240 L220,265 L300,235 L380,200 L460,220 L540,210"/>
    <animate attributeName="opacity" values="0;0.85;0.85;0.85;0.85;0.7;0" dur="3.8s" begin="2.5s" repeatCount="indefinite"/>
  </circle>
  <circle r="2" fill="#A78BFA" filter="url(#glow)" opacity="0">
    <animateMotion dur="5s" begin="0.7s" repeatCount="indefinite" path="M60,100 L140,80 L220,100 L300,100 L380,110 L460,100 L540,110"/>
    <animate attributeName="opacity" values="0;0.7;0.7;0.7;0.7;0.6;0" dur="5s" begin="0.7s" repeatCount="indefinite"/>
  </circle>

  <!-- ANIMATED PULSES (right) -->
  <circle r="3" fill="#EC4899" filter="url(#glow)" opacity="0">
    <animateMotion dur="4s" begin="0.5s" repeatCount="indefinite" path="M1140,140 L1060,140 L980,135 L900,135 L820,140 L740,140 L660,160"/>
    <animate attributeName="opacity" values="0;0.9;0.9;0.9;0.9;0.9;0" dur="4s" begin="0.5s" repeatCount="indefinite"/>
    <animate attributeName="r" values="2;3;3.5;3;3.5;3;2" dur="4s" begin="0.5s" repeatCount="indefinite"/>
  </circle>
  <circle r="2.5" fill="#F9A8D4" filter="url(#glow)" opacity="0">
    <animateMotion dur="4.2s" begin="2s" repeatCount="indefinite" path="M1140,60 L1060,40 L980,30 L900,65 L820,80 L740,60 L660,110"/>
    <animate attributeName="opacity" values="0;0.8;0.8;0.8;0.8;0.7;0" dur="4.2s" begin="2s" repeatCount="indefinite"/>
  </circle>
  <circle r="2.5" fill="#8B5CF6" filter="url(#glow)" opacity="0">
    <animateMotion dur="4.6s" begin="3s" repeatCount="indefinite" path="M1140,220 L1060,240 L980,265 L900,235 L820,200 L740,220 L660,210"/>
    <animate attributeName="opacity" values="0;0.8;0.8;0.8;0.8;0.7;0" dur="4.6s" begin="3s" repeatCount="indefinite"/>
  </circle>

  <!-- LEFT NETWORK NODES -->
  <g filter="url(#glow)">
    <circle cx="60" cy="60" r="4.5" fill="#6366F1" opacity="0.60">
      <animate attributeName="r" values="4.5;5.2;4.5" dur="2.8s" begin="0.0s" repeatCount="indefinite"/></circle>
    <circle cx="60" cy="100" r="4.5" fill="#6366F1" opacity="0.60">
      <animate attributeName="r" values="4.5;5.2;4.5" dur="3.1s" begin="0.3s" repeatCount="indefinite"/></circle>
    <circle cx="60" cy="140" r="4.5" fill="#6366F1" opacity="0.60">
      <animate attributeName="r" values="4.5;5.2;4.5" dur="3.4s" begin="0.6s" repeatCount="indefinite"/></circle>
    <circle cx="60" cy="180" r="4.5" fill="#6366F1" opacity="0.60">
      <animate attributeName="r" values="4.5;5.2;4.5" dur="3.7s" begin="0.9s" repeatCount="indefinite"/></circle>
    <circle cx="60" cy="220" r="4.5" fill="#6366F1" opacity="0.60">
      <animate attributeName="r" values="4.5;5.2;4.5" dur="4.0s" begin="1.2s" repeatCount="indefinite"/></circle>
    <circle cx="140" cy="40" r="3.0" fill="#6366F1" opacity="0.45"></circle>
    <circle cx="140" cy="80" r="3.0" fill="#6366F1" opacity="0.45"></circle>
    <circle cx="140" cy="110" r="3.0" fill="#6366F1" opacity="0.45"></circle>
    <circle cx="140" cy="140" r="3.0" fill="#6366F1" opacity="0.45"></circle>
    <circle cx="140" cy="170" r="3.0" fill="#6366F1" opacity="0.45"></circle>
    <circle cx="140" cy="200" r="3.0" fill="#6366F1" opacity="0.45"></circle>
    <circle cx="140" cy="240" r="3.0" fill="#6366F1" opacity="0.45"></circle>
    <circle cx="220" cy="30" r="3.0" fill="#818CF8" opacity="0.45"></circle>
    <circle cx="220" cy="65" r="3.0" fill="#818CF8" opacity="0.45"></circle>
    <circle cx="220" cy="100" r="3.0" fill="#818CF8" opacity="0.45"></circle>
    <circle cx="220" cy="135" r="3.0" fill="#818CF8" opacity="0.45"></circle>
    <circle cx="220" cy="165" r="3.0" fill="#818CF8" opacity="0.45"></circle>
    <circle cx="220" cy="200" r="3.0" fill="#818CF8" opacity="0.45"></circle>
    <circle cx="220" cy="235" r="3.0" fill="#818CF8" opacity="0.45"></circle>
    <circle cx="220" cy="265" r="3.0" fill="#818CF8" opacity="0.45"></circle>
    <circle cx="300" cy="30" r="4.0" fill="#818CF8" opacity="0.45"></circle>
    <circle cx="300" cy="65" r="4.0" fill="#818CF8" opacity="0.45"></circle>
    <circle cx="300" cy="100" r="4.0" fill="#818CF8" opacity="0.45"></circle>
    <circle cx="300" cy="135" r="4.0" fill="#818CF8" opacity="0.45"></circle>
    <circle cx="300" cy="165" r="4.0" fill="#818CF8" opacity="0.45"></circle>
    <circle cx="300" cy="200" r="4.0" fill="#818CF8" opacity="0.45"></circle>
    <circle cx="300" cy="235" r="4.0" fill="#818CF8" opacity="0.45"></circle>
    <circle cx="300" cy="265" r="4.0" fill="#818CF8" opacity="0.45"></circle>
    <circle cx="380" cy="40" r="3.0" fill="#6366F1" opacity="0.45"></circle>
    <circle cx="380" cy="80" r="3.0" fill="#6366F1" opacity="0.45"></circle>
    <circle cx="380" cy="110" r="3.0" fill="#6366F1" opacity="0.45"></circle>
    <circle cx="380" cy="140" r="3.0" fill="#6366F1" opacity="0.45"></circle>
    <circle cx="380" cy="170" r="3.0" fill="#6366F1" opacity="0.45"></circle>
    <circle cx="380" cy="200" r="3.0" fill="#6366F1" opacity="0.45"></circle>
    <circle cx="380" cy="240" r="3.0" fill="#6366F1" opacity="0.45"></circle>
    <circle cx="460" cy="60" r="3.0" fill="#A78BFA" opacity="0.45"></circle>
    <circle cx="460" cy="100" r="3.0" fill="#A78BFA" opacity="0.45"></circle>
    <circle cx="460" cy="140" r="3.0" fill="#A78BFA" opacity="0.45"></circle>
    <circle cx="460" cy="180" r="3.0" fill="#A78BFA" opacity="0.45"></circle>
    <circle cx="460" cy="220" r="3.0" fill="#A78BFA" opacity="0.45"></circle>
    <circle cx="540" cy="110" r="4.5" fill="#C4B5FD" opacity="0.60">
      <animate attributeName="r" values="4.5;5.2;4.5" dur="2.8s" begin="0.0s" repeatCount="indefinite"/></circle>
    <circle cx="540" cy="160" r="4.5" fill="#C4B5FD" opacity="0.60">
      <animate attributeName="r" values="4.5;5.2;4.5" dur="3.1s" begin="0.3s" repeatCount="indefinite"/></circle>
    <circle cx="540" cy="210" r="4.5" fill="#C4B5FD" opacity="0.60">
      <animate attributeName="r" values="4.5;5.2;4.5" dur="3.4s" begin="0.6s" repeatCount="indefinite"/></circle>
  </g>

  <!-- RIGHT NETWORK NODES -->
  <g filter="url(#glow)">
    <circle cx="1140" cy="60" r="4.5" fill="#EC4899" opacity="0.55">
      <animate attributeName="r" values="4.5;5.2;4.5" dur="2.8s" begin="0.0s" repeatCount="indefinite"/></circle>
    <circle cx="1140" cy="100" r="4.5" fill="#EC4899" opacity="0.55">
      <animate attributeName="r" values="4.5;5.2;4.5" dur="3.1s" begin="0.3s" repeatCount="indefinite"/></circle>
    <circle cx="1140" cy="140" r="4.5" fill="#EC4899" opacity="0.55">
      <animate attributeName="r" values="4.5;5.2;4.5" dur="3.4s" begin="0.6s" repeatCount="indefinite"/></circle>
    <circle cx="1140" cy="180" r="4.5" fill="#EC4899" opacity="0.55">
      <animate attributeName="r" values="4.5;5.2;4.5" dur="3.7s" begin="0.9s" repeatCount="indefinite"/></circle>
    <circle cx="1140" cy="220" r="4.5" fill="#EC4899" opacity="0.55">
      <animate attributeName="r" values="4.5;5.2;4.5" dur="4.0s" begin="1.2s" repeatCount="indefinite"/></circle>
    <circle cx="1140" cy="260" r="4.5" fill="#EC4899" opacity="0.55">
      <animate attributeName="r" values="4.5;5.2;4.5" dur="4.3s" begin="1.5s" repeatCount="indefinite"/></circle>
    <circle cx="1060" cy="40" r="3.0" fill="#EC4899" opacity="0.40"></circle>
    <circle cx="1060" cy="80" r="3.0" fill="#EC4899" opacity="0.40"></circle>
    <circle cx="1060" cy="110" r="3.0" fill="#EC4899" opacity="0.40"></circle>
    <circle cx="1060" cy="140" r="3.0" fill="#EC4899" opacity="0.40"></circle>
    <circle cx="1060" cy="170" r="3.0" fill="#EC4899" opacity="0.40"></circle>
    <circle cx="1060" cy="200" r="3.0" fill="#EC4899" opacity="0.40"></circle>
    <circle cx="1060" cy="240" r="3.0" fill="#EC4899" opacity="0.40"></circle>
    <circle cx="1060" cy="270" r="3.0" fill="#EC4899" opacity="0.40"></circle>
    <circle cx="980" cy="30" r="3.0" fill="#F9A8D4" opacity="0.40"></circle>
    <circle cx="980" cy="65" r="3.0" fill="#F9A8D4" opacity="0.40"></circle>
    <circle cx="980" cy="100" r="3.0" fill="#F9A8D4" opacity="0.40"></circle>
    <circle cx="980" cy="135" r="3.0" fill="#F9A8D4" opacity="0.40"></circle>
    <circle cx="980" cy="165" r="3.0" fill="#F9A8D4" opacity="0.40"></circle>
    <circle cx="980" cy="200" r="3.0" fill="#F9A8D4" opacity="0.40"></circle>
    <circle cx="980" cy="235" r="3.0" fill="#F9A8D4" opacity="0.40"></circle>
    <circle cx="980" cy="265" r="3.0" fill="#F9A8D4" opacity="0.40"></circle>
    <circle cx="900" cy="30" r="4.0" fill="#F9A8D4" opacity="0.40"></circle>
    <circle cx="900" cy="65" r="4.0" fill="#F9A8D4" opacity="0.40"></circle>
    <circle cx="900" cy="100" r="4.0" fill="#F9A8D4" opacity="0.40"></circle>
    <circle cx="900" cy="135" r="4.0" fill="#F9A8D4" opacity="0.40"></circle>
    <circle cx="900" cy="165" r="4.0" fill="#F9A8D4" opacity="0.40"></circle>
    <circle cx="900" cy="200" r="4.0" fill="#F9A8D4" opacity="0.40"></circle>
    <circle cx="900" cy="235" r="4.0" fill="#F9A8D4" opacity="0.40"></circle>
    <circle cx="900" cy="265" r="4.0" fill="#F9A8D4" opacity="0.40"></circle>
    <circle cx="820" cy="40" r="3.0" fill="#EC4899" opacity="0.40"></circle>
    <circle cx="820" cy="80" r="3.0" fill="#EC4899" opacity="0.40"></circle>
    <circle cx="820" cy="110" r="3.0" fill="#EC4899" opacity="0.40"></circle>
    <circle cx="820" cy="140" r="3.0" fill="#EC4899" opacity="0.40"></circle>
    <circle cx="820" cy="170" r="3.0" fill="#EC4899" opacity="0.40"></circle>
    <circle cx="820" cy="200" r="3.0" fill="#EC4899" opacity="0.40"></circle>
    <circle cx="820" cy="240" r="3.0" fill="#EC4899" opacity="0.40"></circle>
    <circle cx="740" cy="60" r="3.0" fill="#F9A8D4" opacity="0.40"></circle>
    <circle cx="740" cy="100" r="3.0" fill="#F9A8D4" opacity="0.40"></circle>
    <circle cx="740" cy="140" r="3.0" fill="#F9A8D4" opacity="0.40"></circle>
    <circle cx="740" cy="180" r="3.0" fill="#F9A8D4" opacity="0.40"></circle>
    <circle cx="740" cy="220" r="3.0" fill="#F9A8D4" opacity="0.40"></circle>
    <circle cx="660" cy="110" r="4.5" fill="#FBCFE8" opacity="0.55">
      <animate attributeName="r" values="4.5;5.2;4.5" dur="2.8s" begin="0.0s" repeatCount="indefinite"/></circle>
    <circle cx="660" cy="160" r="4.5" fill="#FBCFE8" opacity="0.55">
      <animate attributeName="r" values="4.5;5.2;4.5" dur="3.1s" begin="0.3s" repeatCount="indefinite"/></circle>
    <circle cx="660" cy="210" r="4.5" fill="#FBCFE8" opacity="0.55">
      <animate attributeName="r" values="4.5;5.2;4.5" dur="3.4s" begin="0.6s" repeatCount="indefinite"/></circle>
  </g>

  <!-- CENTER TEXT -->
  <text x="600" y="140" text-anchor="middle" font-family="'Segoe UI','Helvetica Neue',Arial,sans-serif" font-size="52" font-weight="700" fill="url(#nameGrad)" filter="url(#textGlow)" opacity="0.3">Batuhan Edgüer</text>
  <text x="600" y="140" text-anchor="middle" font-family="'Segoe UI','Helvetica Neue',Arial,sans-serif" font-size="52" font-weight="700" fill="url(#nameGrad)">Batuhan Edgüer</text>
  <text x="600" y="175" text-anchor="middle" font-family="'Segoe UI','Helvetica Neue',Arial,sans-serif" font-size="18" font-weight="400" fill="url(#subtitleGrad)" opacity="0.8">AI Researcher &amp; ML Engineer</text>
  <line x1="510" y1="195" x2="690" y2="195" stroke="url(#nameGrad)" stroke-width="1.5" stroke-opacity="0.4">
    <animate attributeName="stroke-opacity" values="0.2;0.5;0.2" dur="3s" repeatCount="indefinite"/>
  </line>
  <text x="600" y="215" text-anchor="middle" font-family="'Segoe UI','Helvetica Neue',Arial,sans-serif" font-size="13" fill="#8b949e" opacity="0.6">Istanbul, Turkey</text>

  <rect x="0" y="280" width="1200" height="40" fill="url(#bg)" opacity="0.7"/>
</svg>
